<mxfile host="65bd71144e">
    <diagram id="IOx9Na_cY5ggrTJGRvgd" name="Page-1">
        <mxGraphModel dx="1382" dy="917" grid="1" gridSize="10" guides="1" tooltips="1" connect="1" arrows="1" fold="1" page="1" pageScale="1" pageWidth="1200" pageHeight="1920" math="0" shadow="0">
            <root>
                <mxCell id="0"/>
                <mxCell id="1" parent="0"/>
                <mxCell id="2" value="" style="swimlane;startSize=20;horizontal=0;childLayout=treeLayout;horizontalTree=1;resizable=0;containerType=tree;" parent="1" vertex="1">
                    <mxGeometry x="40" y="170" width="920" height="1501" as="geometry"/>
                </mxCell>
                <mxCell id="3" value="IP Addresses" style="whiteSpace=wrap;html=1;fillColor=#000000;fontColor=#FFFFFF;fontStyle=1" parent="2" vertex="1">
                    <mxGeometry x="40" y="692.48875" width="100" height="40" as="geometry"/>
                </mxCell>
                <mxCell id="24" value="" style="edgeStyle=elbowEdgeStyle;elbow=horizontal;html=1;rounded=0;" parent="2" source="3" target="25" edge="1">
                    <mxGeometry relative="1" as="geometry">
                        <mxPoint x="180" y="-2727.955749999999" as="sourcePoint"/>
                    </mxGeometry>
                </mxCell>
                <mxCell id="25" value="Types" style="whiteSpace=wrap;html=1;fillColor=#999999;fontColor=#FFFFFF;fontStyle=1" parent="2" vertex="1">
                    <mxGeometry x="190" y="309.925" width="100" height="40" as="geometry"/>
                </mxCell>
                <mxCell id="26" value="" style="edgeStyle=elbowEdgeStyle;elbow=horizontal;html=1;rounded=0;" parent="2" source="25" target="27" edge="1">
                    <mxGeometry relative="1" as="geometry">
                        <mxPoint x="180" y="-2348.8557499999997" as="sourcePoint"/>
                    </mxGeometry>
                </mxCell>
                <mxCell id="27" value="Internal IP" style="whiteSpace=wrap;html=1;fillColor=#999999;fontColor=#FFFFFF;fontStyle=1" parent="2" vertex="1">
                    <mxGeometry x="340" y="136" width="100" height="40" as="geometry"/>
                </mxCell>
                <mxCell id="28" value="" style="edgeStyle=elbowEdgeStyle;elbow=horizontal;html=1;rounded=0;" parent="2" source="25" target="29" edge="1">
                    <mxGeometry relative="1" as="geometry">
                        <mxPoint x="330" y="-2063.1057499999997" as="sourcePoint"/>
                    </mxGeometry>
                </mxCell>
                <mxCell id="29" value="External IP" style="whiteSpace=wrap;html=1;fillColor=#999999;fontColor=#FFFFFF;fontStyle=1" parent="2" vertex="1">
                    <mxGeometry x="340" y="483.85" width="100" height="40" as="geometry"/>
                </mxCell>
                <mxCell id="30" value="" style="edgeStyle=elbowEdgeStyle;elbow=horizontal;html=1;rounded=0;" parent="2" source="27" target="31" edge="1">
                    <mxGeometry relative="1" as="geometry">
                        <mxPoint x="330" y="-2043.1057499999997" as="sourcePoint"/>
                    </mxGeometry>
                </mxCell>
                <mxCell id="31" value="&lt;span&gt;Allocated from subnet range to VMs by DHCP&lt;br&gt;&lt;/span&gt;" style="whiteSpace=wrap;html=1;fillColor=#330066;fontColor=#FFFFFF;fontStyle=1" parent="2" vertex="1">
                    <mxGeometry x="490" y="20" width="100" height="60" as="geometry"/>
                </mxCell>
                <mxCell id="32" value="" style="edgeStyle=elbowEdgeStyle;elbow=horizontal;html=1;rounded=0;" parent="2" source="27" target="33" edge="1">
                    <mxGeometry relative="1" as="geometry">
                        <mxPoint x="480" y="-2103.6057499999997" as="sourcePoint"/>
                    </mxGeometry>
                </mxCell>
                <mxCell id="33" value="DHCP lease is renewed every 24 hours&lt;span&gt;&lt;br&gt;&lt;/span&gt;" style="whiteSpace=wrap;html=1;fillColor=#330066;fontColor=#FFFFFF;fontStyle=1" parent="2" vertex="1">
                    <mxGeometry x="490" y="120" width="100" height="60" as="geometry"/>
                </mxCell>
                <mxCell id="34" value="" style="edgeStyle=elbowEdgeStyle;elbow=horizontal;html=1;rounded=0;" parent="2" source="27" target="35" edge="1">
                    <mxGeometry relative="1" as="geometry">
                        <mxPoint x="480" y="-1710.8557500000002" as="sourcePoint"/>
                    </mxGeometry>
                </mxCell>
                <mxCell id="35" value="VM name + IP is registered with network-scoped DNS&lt;span&gt;&lt;br&gt;&lt;/span&gt;" style="whiteSpace=wrap;html=1;fillColor=#330066;fontColor=#FFFFFF;fontStyle=1" parent="2" vertex="1">
                    <mxGeometry x="490" y="220" width="100" height="72" as="geometry"/>
                </mxCell>
                <mxCell id="36" value="" style="edgeStyle=elbowEdgeStyle;elbow=horizontal;html=1;rounded=0;" parent="2" source="29" target="37" edge="1">
                    <mxGeometry relative="1" as="geometry">
                        <mxPoint x="330" y="-991.1557500000006" as="sourcePoint"/>
                    </mxGeometry>
                </mxCell>
                <mxCell id="37" value="Assigned from pool (ephemeral)" style="whiteSpace=wrap;html=1;fillColor=#330066;fontColor=#FFFFFF;fontStyle=1" parent="2" vertex="1">
                    <mxGeometry x="490" y="332.00000000000006" width="100" height="40" as="geometry"/>
                </mxCell>
                <mxCell id="38" value="" style="edgeStyle=elbowEdgeStyle;elbow=horizontal;html=1;rounded=0;" parent="2" source="29" target="39" edge="1">
                    <mxGeometry relative="1" as="geometry">
                        <mxPoint x="480" y="-887.3557500000006" as="sourcePoint"/>
                    </mxGeometry>
                </mxCell>
                <mxCell id="39" value="Reserved (static)" style="whiteSpace=wrap;html=1;fillColor=#330066;fontColor=#FFFFFF;fontStyle=1" parent="2" vertex="1">
                    <mxGeometry x="490" y="412.00000000000006" width="100" height="40" as="geometry"/>
                </mxCell>
                <mxCell id="40" value="" style="edgeStyle=elbowEdgeStyle;elbow=horizontal;html=1;rounded=0;" parent="2" source="29" target="41" edge="1">
                    <mxGeometry relative="1" as="geometry">
                        <mxPoint x="480" y="-857.3557500000006" as="sourcePoint"/>
                    </mxGeometry>
                </mxCell>
                <mxCell id="41" value="Bring Your Own IP address (BYOIP)" style="whiteSpace=wrap;html=1;fillColor=#330066;fontColor=#FFFFFF;fontStyle=1" parent="2" vertex="1">
                    <mxGeometry x="490" y="492.00000000000006" width="100" height="56.7" as="geometry"/>
                </mxCell>
                <mxCell id="42" value="" style="edgeStyle=elbowEdgeStyle;elbow=horizontal;html=1;rounded=0;" parent="2" source="29" target="43" edge="1">
                    <mxGeometry relative="1" as="geometry">
                        <mxPoint x="480" y="-827.3557500000006" as="sourcePoint"/>
                    </mxGeometry>
                </mxCell>
                <mxCell id="43" value="VM doesn't know external IP; it is mapped to the internal IP" style="whiteSpace=wrap;html=1;fillColor=#330066;fontColor=#FFFFFF;fontStyle=1" parent="2" vertex="1">
                    <mxGeometry x="490" y="588.7" width="100" height="87" as="geometry"/>
                </mxCell>
                <mxCell id="44" value="" style="edgeStyle=elbowEdgeStyle;elbow=horizontal;html=1;rounded=0;" parent="2" source="3" target="45" edge="1">
                    <mxGeometry relative="1" as="geometry">
                        <mxPoint x="180" y="-1196.5057500000007" as="sourcePoint"/>
                    </mxGeometry>
                </mxCell>
                <mxCell id="45" value="DNS resolution" style="whiteSpace=wrap;html=1;fillColor=#999999;fontColor=#FFFFFF;fontStyle=1" parent="2" vertex="1">
                    <mxGeometry x="190" y="1075.0525" width="100" height="40" as="geometry"/>
                </mxCell>
                <mxCell id="46" value="" style="edgeStyle=elbowEdgeStyle;elbow=horizontal;html=1;rounded=0;" parent="2" source="45" target="47" edge="1">
                    <mxGeometry relative="1" as="geometry">
                        <mxPoint x="180" y="-797.0107500000006" as="sourcePoint"/>
                    </mxGeometry>
                </mxCell>
                <mxCell id="47" value="Internal IP" style="whiteSpace=wrap;html=1;fillColor=#999999;fontColor=#FFFFFF;fontStyle=1" parent="2" vertex="1">
                    <mxGeometry x="340" y="840.7250000000001" width="100" height="40" as="geometry"/>
                </mxCell>
                <mxCell id="48" value="" style="edgeStyle=elbowEdgeStyle;elbow=horizontal;html=1;rounded=0;" parent="2" source="45" target="49" edge="1">
                    <mxGeometry relative="1" as="geometry">
                        <mxPoint x="330" y="-131.68075000000005" as="sourcePoint"/>
                    </mxGeometry>
                </mxCell>
                <mxCell id="49" value="External IP" style="whiteSpace=wrap;html=1;fillColor=#999999;fontColor=#FFFFFF;fontStyle=1" parent="2" vertex="1">
                    <mxGeometry x="340" y="1309.38" width="100" height="40" as="geometry"/>
                </mxCell>
                <mxCell id="50" value="" style="edgeStyle=elbowEdgeStyle;elbow=horizontal;html=1;rounded=0;" parent="2" source="47" target="51" edge="1">
                    <mxGeometry relative="1" as="geometry">
                        <mxPoint x="330" y="-111.68074999999982" as="sourcePoint"/>
                    </mxGeometry>
                </mxCell>
                <mxCell id="51" value="Each instance has a hostname that can be resolved to an internal IP address" style="whiteSpace=wrap;html=1;fillColor=#330066;fontColor=#FFFFFF;fontStyle=1" parent="2" vertex="1">
                    <mxGeometry x="490" y="715.7" width="180" height="54.3" as="geometry"/>
                </mxCell>
                <mxCell id="52" value="" style="edgeStyle=elbowEdgeStyle;elbow=horizontal;html=1;rounded=0;" parent="2" source="51" target="53" edge="1">
                    <mxGeometry relative="1" as="geometry">
                        <mxPoint x="480" y="-134.35075000000012" as="sourcePoint"/>
                    </mxGeometry>
                </mxCell>
                <mxCell id="53" value="The hostname is the same as the instance name" style="whiteSpace=wrap;html=1;fillColor=#330066;fontColor=#FFFFFF;fontStyle=1" parent="2" vertex="1">
                    <mxGeometry x="720" y="668.5500000000002" width="180" height="54.3" as="geometry"/>
                </mxCell>
                <mxCell id="54" value="" style="edgeStyle=elbowEdgeStyle;elbow=horizontal;html=1;rounded=0;" parent="2" source="51" target="55" edge="1">
                    <mxGeometry relative="1" as="geometry">
                        <mxPoint x="710" y="-134.3507499999999" as="sourcePoint"/>
                    </mxGeometry>
                </mxCell>
                <mxCell id="55" value="FQDN is [hostname].[zone].c.[project-id].internal" style="whiteSpace=wrap;html=1;fillColor=#999999;fontColor=#FFFFFF;fontStyle=1" parent="2" vertex="1">
                    <mxGeometry x="720" y="762.8500000000001" width="180" height="54.3" as="geometry"/>
                </mxCell>
                <mxCell id="56" value="" style="edgeStyle=elbowEdgeStyle;elbow=horizontal;html=1;rounded=0;" parent="2" source="47" target="57" edge="1">
                    <mxGeometry relative="1" as="geometry">
                        <mxPoint x="480" y="-134.35075000000012" as="sourcePoint"/>
                    </mxGeometry>
                </mxCell>
                <mxCell id="57" value="Name resolution is handled by internal DNS resolver" style="whiteSpace=wrap;html=1;fillColor=#330066;fontColor=#FFFFFF;fontStyle=1" parent="2" vertex="1">
                    <mxGeometry x="490" y="951.45" width="180" height="54.3" as="geometry"/>
                </mxCell>
                <mxCell id="58" value="" style="edgeStyle=elbowEdgeStyle;elbow=horizontal;html=1;rounded=0;" edge="1" target="59" source="57" parent="2">
                    <mxGeometry relative="1" as="geometry">
                        <mxPoint x="480" y="449.47675000000015" as="sourcePoint"/>
                    </mxGeometry>
                </mxCell>
                <mxCell id="59" value="Provided as part of Compute Engine" style="whiteSpace=wrap;html=1;fillColor=#330066;fontColor=#FFFFFF;fontStyle=1" vertex="1" parent="2">
                    <mxGeometry x="720" y="857.1500000000001" width="180" height="54.3" as="geometry"/>
                </mxCell>
                <mxCell id="60" value="" style="edgeStyle=elbowEdgeStyle;elbow=horizontal;html=1;rounded=0;" edge="1" target="61" source="57" parent="2">
                    <mxGeometry relative="1" as="geometry">
                        <mxPoint x="710" y="521.6162500000002" as="sourcePoint"/>
                    </mxGeometry>
                </mxCell>
                <mxCell id="61" value="Configured for use on instance via DHCP" style="whiteSpace=wrap;html=1;fillColor=#330066;fontColor=#FFFFFF;fontStyle=1" vertex="1" parent="2">
                    <mxGeometry x="720" y="951.45" width="180" height="54.3" as="geometry"/>
                </mxCell>
                <mxCell id="62" value="" style="edgeStyle=elbowEdgeStyle;elbow=horizontal;html=1;rounded=0;" edge="1" target="63" source="57" parent="2">
                    <mxGeometry relative="1" as="geometry">
                        <mxPoint x="710" y="552.2637499999998" as="sourcePoint"/>
                    </mxGeometry>
                </mxCell>
                <mxCell id="63" value="Provides answer for internal and external addresses" style="whiteSpace=wrap;html=1;fillColor=#330066;fontColor=#FFFFFF;fontStyle=1" vertex="1" parent="2">
                    <mxGeometry x="720" y="1045.75" width="180" height="54.3" as="geometry"/>
                </mxCell>
                <mxCell id="64" value="" style="edgeStyle=elbowEdgeStyle;elbow=horizontal;html=1;rounded=0;" edge="1" target="65" source="49" parent="2">
                    <mxGeometry relative="1" as="geometry">
                        <mxPoint x="330" y="555.0462499999999" as="sourcePoint"/>
                    </mxGeometry>
                </mxCell>
                <mxCell id="65" value="Instances with external IP addresses can allow connections from hosts outside the project&lt;br&gt;" style="whiteSpace=wrap;html=1;fillColor=#330066;fontColor=#FFFFFF;fontStyle=1" vertex="1" parent="2">
                    <mxGeometry x="490" y="1177.875" width="180" height="64.25" as="geometry"/>
                </mxCell>
                <mxCell id="66" value="" style="edgeStyle=elbowEdgeStyle;elbow=horizontal;html=1;rounded=0;" edge="1" target="67" source="65" parent="2">
                    <mxGeometry relative="1" as="geometry">
                        <mxPoint x="480" y="1395.45625" as="sourcePoint"/>
                    </mxGeometry>
                </mxCell>
                <mxCell id="67" value="User connect directly using external IP address" style="whiteSpace=wrap;html=1;fillColor=#330066;fontColor=#FFFFFF;fontStyle=1" vertex="1" parent="2">
                    <mxGeometry x="720" y="1140.05" width="180" height="49.95" as="geometry"/>
                </mxCell>
                <mxCell id="68" value="" style="edgeStyle=elbowEdgeStyle;elbow=horizontal;html=1;rounded=0;" edge="1" target="69" source="65" parent="2">
                    <mxGeometry relative="1" as="geometry">
                        <mxPoint x="710" y="1376.11375" as="sourcePoint"/>
                    </mxGeometry>
                </mxCell>
                <mxCell id="69" value="Admins can also publish public DNS records pointing to the instance" style="whiteSpace=wrap;html=1;fillColor=#330066;fontColor=#FFFFFF;fontStyle=1" vertex="1" parent="2">
                    <mxGeometry x="720" y="1230" width="180" height="49.95" as="geometry"/>
                </mxCell>
                <mxCell id="70" value="" style="edgeStyle=elbowEdgeStyle;elbow=horizontal;html=1;rounded=0;" edge="1" target="71" source="49" parent="2">
                    <mxGeometry relative="1" as="geometry">
                        <mxPoint x="480" y="1409.845" as="sourcePoint"/>
                    </mxGeometry>
                </mxCell>
                <mxCell id="71" value="DNS records for external addresses can be published using existing DNS servers" style="whiteSpace=wrap;html=1;fillColor=#330066;fontColor=#FFFFFF;fontStyle=1" vertex="1" parent="2">
                    <mxGeometry x="490" y="1312.385" width="180" height="64.25" as="geometry"/>
                </mxCell>
                <mxCell id="72" value="" style="edgeStyle=elbowEdgeStyle;elbow=horizontal;html=1;rounded=0;" edge="1" target="73" source="49" parent="2">
                    <mxGeometry relative="1" as="geometry">
                        <mxPoint x="480" y="1460.28625" as="sourcePoint"/>
                    </mxGeometry>
                </mxCell>
                <mxCell id="73" value="DNS zones can be hosted using Cloud DNS" style="whiteSpace=wrap;html=1;fillColor=#330066;fontColor=#FFFFFF;fontStyle=1" vertex="1" parent="2">
                    <mxGeometry x="490" y="1416.635" width="180" height="64.25" as="geometry"/>
                </mxCell>
            </root>
        </mxGraphModel>
    </diagram>
</mxfile>